{
	"asset":{
		"generator":"Khronos glTF Blender I/O v4.3.47",
		"version":"2.0"
	},
	"scene":0,
	"scenes":[
		{
			"name":"Scene",
			"nodes":[
				0
			]
		}
	],
	"nodes":[
		{
			"mesh":0,
			"name":"Cube.005",
			"rotation":[
				0,
				-1,
				0,
				7.549790126404332e-08
			],
			"translation":[
				0,
				2.953744411468506,
				-1.0639437437057495
			]
		}
	],
	"materials":[
		{
			"doubleSided":true,
			"name":"Material.001"
		}
	],
	"meshes":[
		{
			"name":"Cube.012",
			"primitives":[
				{
					"attributes":{
						"POSITION":0,
						"NORMAL":1,
						"TEXCOORD_0":2
					},
					"indices":3,
					"material":0
				}
			]
		}
	],
	"accessors":[
		{
			"bufferView":0,
			"componentType":5126,
			"count":382,
			"max":[
				3.4079718589782715,
				0.5906906127929688,
				4.537272930145264
			],
			"min":[
				-3.4079723358154297,
				-3.593006134033203,
				-5.806183815002441
			],
			"type":"VEC3"
		},
		{
			"bufferView":1,
			"componentType":5126,
			"count":382,
			"type":"VEC3"
		},
		{
			"bufferView":2,
			"componentType":5126,
			"count":382,
			"type":"VEC2"
		},
		{
			"bufferView":3,
			"componentType":5123,
			"count":660,
			"type":"SCALAR"
		}
	],
	"bufferViews":[
		{
			"buffer":0,
			"byteLength":4584,
			"byteOffset":0,
			"target":34962
		},
		{
			"buffer":0,
			"byteLength":4584,
			"byteOffset":4584,
			"target":34962
		},
		{
			"buffer":0,
			"byteLength":3056,
			"byteOffset":9168,
			"target":34962
		},
		{
			"buffer":0,
			"byteLength":1320,
			"byteOffset":12224,
			"target":34963
		}
	],
	"buffers":[
		{
			"byteLength":13544,
			"uri":"TankNew.bin"
		}
	]
}
