{
	"asset":{
		"generator":"Khronos glTF Blender I/O v4.3.47",
		"version":"2.0"
	},
	"scene":0,
	"scenes":[
		{
			"name":"Scene",
			"nodes":[
				0
			]
		}
	],
	"nodes":[
		{
			"mesh":0,
			"name":"Body.009"
		}
	],
	"materials":[
		{
			"doubleSided":true,
			"name":"Material",
			"pbrMetallicRoughness":{
				"baseColorTexture":{
					"index":0
				},
				"metallicFactor":0,
				"roughnessFactor":0.5
			}
		},
		{
			"doubleSided":true,
			"emissiveFactor":[
				0.9150741208620872,
				0,
				0.018971090277365432
			],
			"name":"TailLightsMaterial",
			"pbrMetallicRoughness":{
				"baseColorFactor":[
					0.7237082123756409,
					0.14506246149539948,
					0.09506870806217194,
					1
				],
				"metallicFactor":0,
				"roughnessFactor":0.5
			}
		}
	],
	"meshes":[
		{
			"name":"Cube.012",
			"primitives":[
				{
					"attributes":{
						"POSITION":0,
						"NORMAL":1,
						"TEXCOORD_0":2
					},
					"indices":3,
					"material":0
				},
				{
					"attributes":{
						"POSITION":4,
						"NORMAL":5,
						"TEXCOORD_0":6
					},
					"indices":7,
					"material":1
				}
			]
		}
	],
	"textures":[
		{
			"sampler":0,
			"source":0
		}
	],
	"images":[
		{
			"mimeType":"image/png",
			"name":"BaseColor",
			"uri":"BaseColor.png"
		}
	],
	"accessors":[
		{
			"bufferView":0,
			"componentType":5126,
			"count":302,
			"max":[
				8.088447570800781,
				10.476579666137695,
				13.634516716003418
			],
			"min":[
				-8.249370574951172,
				-3.1536314487457275,
				-20.923118591308594
			],
			"type":"VEC3"
		},
		{
			"bufferView":1,
			"componentType":5126,
			"count":302,
			"type":"VEC3"
		},
		{
			"bufferView":2,
			"componentType":5126,
			"count":302,
			"type":"VEC2"
		},
		{
			"bufferView":3,
			"componentType":5123,
			"count":474,
			"type":"SCALAR"
		},
		{
			"bufferView":4,
			"componentType":5126,
			"count":48,
			"max":[
				7.426103591918945,
				3.0066795349121094,
				13.994294166564941
			],
			"min":[
				-7.563501358032227,
				1.6590410470962524,
				13.337328910827637
			],
			"type":"VEC3"
		},
		{
			"bufferView":5,
			"componentType":5126,
			"count":48,
			"type":"VEC3"
		},
		{
			"bufferView":6,
			"componentType":5126,
			"count":48,
			"type":"VEC2"
		},
		{
			"bufferView":7,
			"componentType":5123,
			"count":72,
			"type":"SCALAR"
		}
	],
	"bufferViews":[
		{
			"buffer":0,
			"byteLength":3624,
			"byteOffset":0,
			"target":34962
		},
		{
			"buffer":0,
			"byteLength":3624,
			"byteOffset":3624,
			"target":34962
		},
		{
			"buffer":0,
			"byteLength":2416,
			"byteOffset":7248,
			"target":34962
		},
		{
			"buffer":0,
			"byteLength":948,
			"byteOffset":9664,
			"target":34963
		},
		{
			"buffer":0,
			"byteLength":576,
			"byteOffset":10612,
			"target":34962
		},
		{
			"buffer":0,
			"byteLength":576,
			"byteOffset":11188,
			"target":34962
		},
		{
			"buffer":0,
			"byteLength":384,
			"byteOffset":11764,
			"target":34962
		},
		{
			"buffer":0,
			"byteLength":144,
			"byteOffset":12148,
			"target":34963
		}
	],
	"samplers":[
		{
			"magFilter":9729,
			"minFilter":9987
		}
	],
	"buffers":[
		{
			"byteLength":12292,
			"uri":"TankGen2.bin"
		}
	]
}
