{
	"asset":{
		"generator":"Khronos glTF Blender I/O v4.3.47",
		"version":"2.0"
	},
	"extensionsUsed":[
		"KHR_materials_emissive_strength"
	],
	"scene":0,
	"scenes":[
		{
			"name":"Scene",
			"nodes":[
				5
			]
		}
	],
	"nodes":[
		{
			"mesh":0,
			"name":"Body"
		},
		{
			"mesh":1,
			"name":"Barrel"
		},
		{
			"children":[
				1
			],
			"mesh":2,
			"name":"Head"
		},
		{
			"mesh":3,
			"name":"Head.008"
		},
		{
			"mesh":4,
			"name":"Tracks"
		},
		{
			"children":[
				0,
				2,
				3,
				4
			],
			"name":"Tank"
		}
	],
	"animations":[
		{
			"channels":[
				{
					"sampler":0,
					"target":{
						"node":1,
						"path":"translation"
					}
				},
				{
					"sampler":1,
					"target":{
						"node":1,
						"path":"rotation"
					}
				},
				{
					"sampler":2,
					"target":{
						"node":1,
						"path":"scale"
					}
				}
			],
			"name":"FireAnimation",
			"samplers":[
				{
					"input":20,
					"interpolation":"LINEAR",
					"output":21
				},
				{
					"input":22,
					"interpolation":"STEP",
					"output":23
				},
				{
					"input":22,
					"interpolation":"STEP",
					"output":24
				}
			]
		}
	],
	"materials":[
		{
			"doubleSided":true,
			"name":"Material.004",
			"pbrMetallicRoughness":{
				"baseColorTexture":{
					"index":0
				},
				"metallicFactor":0,
				"roughnessFactor":0.5
			}
		},
		{
			"doubleSided":true,
			"emissiveFactor":[
				1,
				0,
				0.01599631831049919
			],
			"extensions":{
				"KHR_materials_emissive_strength":{
					"emissiveStrength":2
				}
			},
			"name":"TailLightsMaterial",
			"pbrMetallicRoughness":{
				"baseColorFactor":[
					1,
					0,
					0.01599631831049919,
					1
				],
				"metallicFactor":0,
				"roughnessFactor":0.5
			}
		}
	],
	"meshes":[
		{
			"name":"Cube.011",
			"primitives":[
				{
					"attributes":{
						"POSITION":0,
						"NORMAL":1,
						"TEXCOORD_0":2
					},
					"indices":3,
					"material":0
				}
			]
		},
		{
			"name":"Cube.014",
			"primitives":[
				{
					"attributes":{
						"POSITION":4,
						"NORMAL":5,
						"TEXCOORD_0":6
					},
					"indices":7,
					"material":0
				}
			]
		},
		{
			"name":"Cube.005",
			"primitives":[
				{
					"attributes":{
						"POSITION":8,
						"NORMAL":9,
						"TEXCOORD_0":10
					},
					"indices":11,
					"material":0
				}
			]
		},
		{
			"name":"Cube.012",
			"primitives":[
				{
					"attributes":{
						"POSITION":12,
						"NORMAL":13,
						"TEXCOORD_0":14
					},
					"indices":15,
					"material":1
				}
			]
		},
		{
			"name":"Cube.010",
			"primitives":[
				{
					"attributes":{
						"POSITION":16,
						"NORMAL":17,
						"TEXCOORD_0":18
					},
					"indices":19,
					"material":0
				}
			]
		}
	],
	"textures":[
		{
			"sampler":0,
			"source":0
		}
	],
	"images":[
		{
			"mimeType":"image/png",
			"name":"BaseColor",
			"uri":"BaseColor.png"
		}
	],
	"accessors":[
		{
			"bufferView":0,
			"componentType":5126,
			"count":40,
			"max":[
				8.088447570800781,
				3.3514182567596436,
				13.634516716003418
			],
			"min":[
				-8.249370574951172,
				-0.27523159980773926,
				-12.553436279296875
			],
			"type":"VEC3"
		},
		{
			"bufferView":1,
			"componentType":5126,
			"count":40,
			"type":"VEC3"
		},
		{
			"bufferView":2,
			"componentType":5126,
			"count":40,
			"type":"VEC2"
		},
		{
			"bufferView":3,
			"componentType":5123,
			"count":60,
			"type":"SCALAR"
		},
		{
			"bufferView":4,
			"componentType":5126,
			"count":30,
			"max":[
				0.508607804775238,
				4.809865951538086,
				-14.511709213256836
			],
			"min":[
				-0.8247436881065369,
				3.655148983001709,
				-20.67581558227539
			],
			"type":"VEC3"
		},
		{
			"bufferView":5,
			"componentType":5126,
			"count":30,
			"type":"VEC3"
		},
		{
			"bufferView":6,
			"componentType":5126,
			"count":30,
			"type":"VEC2"
		},
		{
			"bufferView":7,
			"componentType":5123,
			"count":48,
			"type":"SCALAR"
		},
		{
			"bufferView":8,
			"componentType":5126,
			"count":168,
			"max":[
				7.217922687530518,
				10.476579666137695,
				10.148515701293945
			],
			"min":[
				-7.494076251983643,
				3.1852147579193115,
				-14.759012222290039
			],
			"type":"VEC3"
		},
		{
			"bufferView":9,
			"componentType":5126,
			"count":168,
			"type":"VEC3"
		},
		{
			"bufferView":10,
			"componentType":5126,
			"count":168,
			"type":"VEC2"
		},
		{
			"bufferView":11,
			"componentType":5123,
			"count":258,
			"type":"SCALAR"
		},
		{
			"bufferView":12,
			"componentType":5126,
			"count":48,
			"max":[
				7.426103591918945,
				3.0066795349121094,
				13.994294166564941
			],
			"min":[
				-7.563501358032227,
				1.6590410470962524,
				13.337328910827637
			],
			"type":"VEC3"
		},
		{
			"bufferView":13,
			"componentType":5126,
			"count":48,
			"type":"VEC3"
		},
		{
			"bufferView":14,
			"componentType":5126,
			"count":48,
			"type":"VEC2"
		},
		{
			"bufferView":15,
			"componentType":5123,
			"count":72,
			"type":"SCALAR"
		},
		{
			"bufferView":16,
			"componentType":5126,
			"count":64,
			"max":[
				7.547464370727539,
				0.8258474469184875,
				11.230871200561523
			],
			"min":[
				-7.819168567657471,
				-3.1536314487457275,
				-11.517393112182617
			],
			"type":"VEC3"
		},
		{
			"bufferView":17,
			"componentType":5126,
			"count":64,
			"type":"VEC3"
		},
		{
			"bufferView":18,
			"componentType":5126,
			"count":64,
			"type":"VEC2"
		},
		{
			"bufferView":19,
			"componentType":5123,
			"count":108,
			"type":"SCALAR"
		},
		{
			"bufferView":20,
			"componentType":5126,
			"count":20,
			"max":[
				0.8333333333333334
			],
			"min":[
				0.041666666666666664
			],
			"type":"SCALAR"
		},
		{
			"bufferView":21,
			"componentType":5126,
			"count":20,
			"type":"VEC3"
		},
		{
			"bufferView":22,
			"componentType":5126,
			"count":2,
			"max":[
				0.8333333333333334
			],
			"min":[
				0.041666666666666664
			],
			"type":"SCALAR"
		},
		{
			"bufferView":23,
			"componentType":5126,
			"count":2,
			"type":"VEC4"
		},
		{
			"bufferView":24,
			"componentType":5126,
			"count":2,
			"type":"VEC3"
		}
	],
	"bufferViews":[
		{
			"buffer":0,
			"byteLength":480,
			"byteOffset":0,
			"target":34962
		},
		{
			"buffer":0,
			"byteLength":480,
			"byteOffset":480,
			"target":34962
		},
		{
			"buffer":0,
			"byteLength":320,
			"byteOffset":960,
			"target":34962
		},
		{
			"buffer":0,
			"byteLength":120,
			"byteOffset":1280,
			"target":34963
		},
		{
			"buffer":0,
			"byteLength":360,
			"byteOffset":1400,
			"target":34962
		},
		{
			"buffer":0,
			"byteLength":360,
			"byteOffset":1760,
			"target":34962
		},
		{
			"buffer":0,
			"byteLength":240,
			"byteOffset":2120,
			"target":34962
		},
		{
			"buffer":0,
			"byteLength":96,
			"byteOffset":2360,
			"target":34963
		},
		{
			"buffer":0,
			"byteLength":2016,
			"byteOffset":2456,
			"target":34962
		},
		{
			"buffer":0,
			"byteLength":2016,
			"byteOffset":4472,
			"target":34962
		},
		{
			"buffer":0,
			"byteLength":1344,
			"byteOffset":6488,
			"target":34962
		},
		{
			"buffer":0,
			"byteLength":516,
			"byteOffset":7832,
			"target":34963
		},
		{
			"buffer":0,
			"byteLength":576,
			"byteOffset":8348,
			"target":34962
		},
		{
			"buffer":0,
			"byteLength":576,
			"byteOffset":8924,
			"target":34962
		},
		{
			"buffer":0,
			"byteLength":384,
			"byteOffset":9500,
			"target":34962
		},
		{
			"buffer":0,
			"byteLength":144,
			"byteOffset":9884,
			"target":34963
		},
		{
			"buffer":0,
			"byteLength":768,
			"byteOffset":10028,
			"target":34962
		},
		{
			"buffer":0,
			"byteLength":768,
			"byteOffset":10796,
			"target":34962
		},
		{
			"buffer":0,
			"byteLength":512,
			"byteOffset":11564,
			"target":34962
		},
		{
			"buffer":0,
			"byteLength":216,
			"byteOffset":12076,
			"target":34963
		},
		{
			"buffer":0,
			"byteLength":80,
			"byteOffset":12292
		},
		{
			"buffer":0,
			"byteLength":240,
			"byteOffset":12372
		},
		{
			"buffer":0,
			"byteLength":8,
			"byteOffset":12612
		},
		{
			"buffer":0,
			"byteLength":32,
			"byteOffset":12620
		},
		{
			"buffer":0,
			"byteLength":24,
			"byteOffset":12652
		}
	],
	"samplers":[
		{
			"magFilter":9729,
			"minFilter":9987
		}
	],
	"buffers":[
		{
			"byteLength":12676,
			"uri":"TankGen2.bin"
		}
	]
}
