{
	"asset":{
		"generator":"Khronos glTF Blender I/O v4.3.47",
		"version":"2.0"
	},
	"scene":0,
	"scenes":[
		{
			"name":"Scene",
			"nodes":[
				0,
				1,
				2,
				3,
				4,
				5,
				6,
				7,
				8,
				9,
				10,
				11,
				12,
				13,
				14,
				15,
				16,
				17,
				18
			]
		}
	],
	"nodes":[
		{
			"mesh":0,
			"name":"Cube"
		},
		{
			"mesh":1,
			"name":"Cube.002"
		},
		{
			"mesh":2,
			"name":"Cube.005",
			"scale":[
				1.3152587413787842,
				1.3152587413787842,
				1.3152587413787842
			],
			"translation":[
				-0.007677197456359863,
				0.9546032547950745,
				-0.7010480761528015
			]
		},
		{
			"mesh":3,
			"name":"Cube.006",
			"scale":[
				1.3152587413787842,
				1.3152587413787842,
				1.3152587413787842
			],
			"translation":[
				-0.9524709582328796,
				0.8290543556213379,
				-0.6639418005943298
			]
		},
		{
			"mesh":4,
			"name":"Cube.007",
			"scale":[
				1.3152587413787842,
				1.3152587413787842,
				1.3152587413787842
			],
			"translation":[
				0.9843336343765259,
				0.8283329010009766,
				-0.5946226716041565
			]
		},
		{
			"mesh":5,
			"name":"Cube.008",
			"scale":[
				1.3152587413787842,
				1.3152587413787842,
				1.3152587413787842
			],
			"translation":[
				-0.007677316665649414,
				1.419943928718567,
				-0.7584630846977234
			]
		},
		{
			"mesh":6,
			"name":"Cube.009",
			"scale":[
				1.3152587413787842,
				1.3152587413787842,
				1.3152587413787842
			],
			"translation":[
				0.8292580246925354,
				1.4063645601272583,
				-0.7741170525550842
			]
		},
		{
			"mesh":7,
			"name":"Cylinder"
		},
		{
			"mesh":8,
			"name":"Cylinder.001"
		},
		{
			"mesh":9,
			"name":"Cylinder.002"
		},
		{
			"mesh":10,
			"name":"Cylinder.003"
		},
		{
			"mesh":11,
			"name":"Cylinder.004"
		},
		{
			"mesh":12,
			"name":"Cylinder.005"
		},
		{
			"mesh":13,
			"name":"Cylinder.006"
		},
		{
			"mesh":14,
			"name":"Cylinder.007"
		},
		{
			"mesh":15,
			"name":"Cylinder.012",
			"scale":[
				1.3152587413787842,
				1.3152587413787842,
				1.3152587413787842
			],
			"translation":[
				-0.955779492855072,
				0.8320975303649902,
				-0.06449814885854721
			]
		},
		{
			"mesh":16,
			"name":"Cylinder.013",
			"scale":[
				2.0021750926971436,
				2.0021750926971436,
				1.3152587413787842
			],
			"translation":[
				0.03458110988140106,
				1.443232536315918,
				1.0359630584716797
			]
		},
		{
			"mesh":17,
			"name":"Cylinder.014",
			"scale":[
				2.0021750926971436,
				2.0021750926971436,
				1.3152587413787842
			],
			"translation":[
				0.03302909433841705,
				1.4425876140594482,
				0.2509731352329254
			]
		},
		{
			"mesh":18,
			"name":"Cylinder.015",
			"scale":[
				1.3152587413787842,
				1.3152587413787842,
				1.3152587413787842
			],
			"translation":[
				0.00855223834514618,
				1.455022931098938,
				1.0359630584716797
			]
		}
	],
	"meshes":[
		{
			"name":"Cube.002",
			"primitives":[
				{
					"attributes":{
						"POSITION":0,
						"NORMAL":1,
						"TEXCOORD_0":2
					},
					"indices":3
				}
			]
		},
		{
			"name":"Cube.005",
			"primitives":[
				{
					"attributes":{
						"POSITION":4,
						"NORMAL":5,
						"TEXCOORD_0":6
					},
					"indices":7
				}
			]
		},
		{
			"name":"Cube.012",
			"primitives":[
				{
					"attributes":{
						"POSITION":8,
						"NORMAL":9,
						"TEXCOORD_0":10
					},
					"indices":11
				}
			]
		},
		{
			"name":"Cube.013",
			"primitives":[
				{
					"attributes":{
						"POSITION":12,
						"NORMAL":13,
						"TEXCOORD_0":14
					},
					"indices":15
				}
			]
		},
		{
			"name":"Cube.014",
			"primitives":[
				{
					"attributes":{
						"POSITION":16,
						"NORMAL":17,
						"TEXCOORD_0":18
					},
					"indices":19
				}
			]
		},
		{
			"name":"Cube.016",
			"primitives":[
				{
					"attributes":{
						"POSITION":20,
						"NORMAL":21,
						"TEXCOORD_0":22
					},
					"indices":23
				}
			]
		},
		{
			"name":"Cube.019",
			"primitives":[
				{
					"attributes":{
						"POSITION":24,
						"NORMAL":25,
						"TEXCOORD_0":26
					},
					"indices":27
				}
			]
		},
		{
			"name":"Cylinder",
			"primitives":[
				{
					"attributes":{
						"POSITION":28,
						"NORMAL":29,
						"TEXCOORD_0":30
					},
					"indices":31
				}
			]
		},
		{
			"name":"Cylinder.001",
			"primitives":[
				{
					"attributes":{
						"POSITION":32,
						"NORMAL":33,
						"TEXCOORD_0":34
					},
					"indices":31
				}
			]
		},
		{
			"name":"Cylinder.002",
			"primitives":[
				{
					"attributes":{
						"POSITION":35,
						"NORMAL":36,
						"TEXCOORD_0":37
					},
					"indices":31
				}
			]
		},
		{
			"name":"Cylinder.003",
			"primitives":[
				{
					"attributes":{
						"POSITION":38,
						"NORMAL":39,
						"TEXCOORD_0":40
					},
					"indices":31
				}
			]
		},
		{
			"name":"Cylinder.004",
			"primitives":[
				{
					"attributes":{
						"POSITION":41,
						"NORMAL":42,
						"TEXCOORD_0":43
					},
					"indices":44
				}
			]
		},
		{
			"name":"Cylinder.005",
			"primitives":[
				{
					"attributes":{
						"POSITION":45,
						"NORMAL":46,
						"TEXCOORD_0":47
					},
					"indices":44
				}
			]
		},
		{
			"name":"Cylinder.006",
			"primitives":[
				{
					"attributes":{
						"POSITION":48,
						"NORMAL":49,
						"TEXCOORD_0":50
					},
					"indices":44
				}
			]
		},
		{
			"name":"Cylinder.007",
			"primitives":[
				{
					"attributes":{
						"POSITION":51,
						"NORMAL":52,
						"TEXCOORD_0":53
					},
					"indices":44
				}
			]
		},
		{
			"name":"Cylinder.016",
			"primitives":[
				{
					"attributes":{
						"POSITION":54,
						"NORMAL":55,
						"TEXCOORD_0":56
					},
					"indices":57
				}
			]
		},
		{
			"name":"Cylinder.017",
			"primitives":[
				{
					"attributes":{
						"POSITION":58,
						"NORMAL":59,
						"TEXCOORD_0":60
					},
					"indices":61
				}
			]
		},
		{
			"name":"Cylinder.018",
			"primitives":[
				{
					"attributes":{
						"POSITION":62,
						"NORMAL":63,
						"TEXCOORD_0":64
					},
					"indices":61
				}
			]
		},
		{
			"name":"Cylinder.019",
			"primitives":[
				{
					"attributes":{
						"POSITION":65,
						"NORMAL":66,
						"TEXCOORD_0":67
					},
					"indices":61
				}
			]
		}
	],
	"accessors":[
		{
			"bufferView":0,
			"componentType":5126,
			"count":76,
			"max":[
				1.4760770797729492,
				0.39269518852233887,
				3.135615110397339
			],
			"min":[
				-1.4760770797729492,
				-1.13471257686615,
				-2.970541477203369
			],
			"type":"VEC3"
		},
		{
			"bufferView":1,
			"componentType":5126,
			"count":76,
			"type":"VEC3"
		},
		{
			"bufferView":2,
			"componentType":5126,
			"count":76,
			"type":"VEC2"
		},
		{
			"bufferView":3,
			"componentType":5123,
			"count":120,
			"type":"SCALAR"
		},
		{
			"bufferView":4,
			"componentType":5126,
			"count":96,
			"max":[
				1.4361821413040161,
				-0.5918848514556885,
				2.654545307159424
			],
			"min":[
				-1.4361821413040161,
				-1.4240269660949707,
				-2.8696115016937256
			],
			"type":"VEC3"
		},
		{
			"bufferView":5,
			"componentType":5126,
			"count":96,
			"type":"VEC3"
		},
		{
			"bufferView":6,
			"componentType":5126,
			"count":96,
			"type":"VEC2"
		},
		{
			"bufferView":7,
			"componentType":5123,
			"count":156,
			"type":"SCALAR"
		},
		{
			"bufferView":8,
			"componentType":5126,
			"count":100,
			"max":[
				0.5493583083152771,
				0.5375785827636719,
				0.7730357646942139
			],
			"min":[
				-0.5493583679199219,
				-0.541250467300415,
				-0.5599146485328674
			],
			"type":"VEC3"
		},
		{
			"bufferView":9,
			"componentType":5126,
			"count":100,
			"type":"VEC3"
		},
		{
			"bufferView":10,
			"componentType":5126,
			"count":100,
			"type":"VEC2"
		},
		{
			"bufferView":11,
			"componentType":5123,
			"count":180,
			"type":"SCALAR"
		},
		{
			"bufferView":12,
			"componentType":5126,
			"count":48,
			"max":[
				0.18222880363464355,
				0.2539703845977783,
				0.4553132951259613
			],
			"min":[
				-0.182228684425354,
				-0.2539703845977783,
				-0.4553130269050598
			],
			"type":"VEC3"
		},
		{
			"bufferView":13,
			"componentType":5126,
			"count":48,
			"type":"VEC3"
		},
		{
			"bufferView":14,
			"componentType":5126,
			"count":48,
			"type":"VEC2"
		},
		{
			"bufferView":15,
			"componentType":5123,
			"count":84,
			"type":"SCALAR"
		},
		{
			"bufferView":16,
			"componentType":5126,
			"count":50,
			"max":[
				0.19795376062393188,
				0.13516682386398315,
				0.383330762386322
			],
			"min":[
				-0.19795387983322144,
				-0.25206446647644043,
				-0.3833305835723877
			],
			"type":"VEC3"
		},
		{
			"bufferView":17,
			"componentType":5126,
			"count":50,
			"type":"VEC3"
		},
		{
			"bufferView":18,
			"componentType":5126,
			"count":50,
			"type":"VEC2"
		},
		{
			"bufferView":19,
			"componentType":5123,
			"count":84,
			"type":"SCALAR"
		},
		{
			"bufferView":20,
			"componentType":5126,
			"count":24,
			"max":[
				0.18985706567764282,
				0.1566157341003418,
				0.24909156560897827
			],
			"min":[
				-0.18985706567764282,
				-0.1566157341003418,
				-0.24909156560897827
			],
			"type":"VEC3"
		},
		{
			"bufferView":21,
			"componentType":5126,
			"count":24,
			"type":"VEC3"
		},
		{
			"bufferView":22,
			"componentType":5126,
			"count":24,
			"type":"VEC2"
		},
		{
			"bufferView":23,
			"componentType":5123,
			"count":36,
			"type":"SCALAR"
		},
		{
			"bufferView":24,
			"componentType":5126,
			"count":344,
			"max":[
				0.4240904450416565,
				0.26641690731048584,
				0.44905582070350647
			],
			"min":[
				-0.5785715579986572,
				-0.3525218963623047,
				-0.34720277786254883
			],
			"type":"VEC3"
		},
		{
			"bufferView":25,
			"componentType":5126,
			"count":344,
			"type":"VEC3"
		},
		{
			"bufferView":26,
			"componentType":5126,
			"count":344,
			"type":"VEC2"
		},
		{
			"bufferView":27,
			"componentType":5123,
			"count":540,
			"type":"SCALAR"
		},
		{
			"bufferView":28,
			"componentType":5126,
			"count":229,
			"max":[
				1.560903549194336,
				-0.6237886548042297,
				-1.5758769512176514
			],
			"min":[
				1.04677152633667,
				-1.7466247081756592,
				-2.7275888919830322
			],
			"type":"VEC3"
		},
		{
			"bufferView":29,
			"componentType":5126,
			"count":229,
			"type":"VEC3"
		},
		{
			"bufferView":30,
			"componentType":5126,
			"count":229,
			"type":"VEC2"
		},
		{
			"bufferView":31,
			"componentType":5123,
			"count":408,
			"type":"SCALAR"
		},
		{
			"bufferView":32,
			"componentType":5126,
			"count":229,
			"max":[
				1.560903549194336,
				-0.6237886548042297,
				-0.3828684687614441
			],
			"min":[
				1.04677152633667,
				-1.7466247081756592,
				-1.5345802307128906
			],
			"type":"VEC3"
		},
		{
			"bufferView":33,
			"componentType":5126,
			"count":229,
			"type":"VEC3"
		},
		{
			"bufferView":34,
			"componentType":5126,
			"count":229,
			"type":"VEC2"
		},
		{
			"bufferView":35,
			"componentType":5126,
			"count":229,
			"max":[
				1.560903549194336,
				-0.6237886548042297,
				1.2843763828277588
			],
			"min":[
				1.04677152633667,
				-1.7466247081756592,
				0.1326645016670227
			],
			"type":"VEC3"
		},
		{
			"bufferView":36,
			"componentType":5126,
			"count":229,
			"type":"VEC3"
		},
		{
			"bufferView":37,
			"componentType":5126,
			"count":229,
			"type":"VEC2"
		},
		{
			"bufferView":38,
			"componentType":5126,
			"count":229,
			"max":[
				1.560903549194336,
				-0.6237886548042297,
				2.4773848056793213
			],
			"min":[
				1.04677152633667,
				-1.7466247081756592,
				1.3256731033325195
			],
			"type":"VEC3"
		},
		{
			"bufferView":39,
			"componentType":5126,
			"count":229,
			"type":"VEC3"
		},
		{
			"bufferView":40,
			"componentType":5126,
			"count":229,
			"type":"VEC2"
		},
		{
			"bufferView":41,
			"componentType":5126,
			"count":229,
			"max":[
				-1.0455633401870728,
				-0.6237886548042297,
				-1.5758769512176514
			],
			"min":[
				-1.5596952438354492,
				-1.7466247081756592,
				-2.7275888919830322
			],
			"type":"VEC3"
		},
		{
			"bufferView":42,
			"componentType":5126,
			"count":229,
			"type":"VEC3"
		},
		{
			"bufferView":43,
			"componentType":5126,
			"count":229,
			"type":"VEC2"
		},
		{
			"bufferView":44,
			"componentType":5123,
			"count":408,
			"type":"SCALAR"
		},
		{
			"bufferView":45,
			"componentType":5126,
			"count":229,
			"max":[
				-1.0455633401870728,
				-0.6237886548042297,
				-0.3828684687614441
			],
			"min":[
				-1.5596952438354492,
				-1.7466247081756592,
				-1.5345802307128906
			],
			"type":"VEC3"
		},
		{
			"bufferView":46,
			"componentType":5126,
			"count":229,
			"type":"VEC3"
		},
		{
			"bufferView":47,
			"componentType":5126,
			"count":229,
			"type":"VEC2"
		},
		{
			"bufferView":48,
			"componentType":5126,
			"count":229,
			"max":[
				-1.0455633401870728,
				-0.6237886548042297,
				1.2843763828277588
			],
			"min":[
				-1.5596952438354492,
				-1.7466247081756592,
				0.1326645016670227
			],
			"type":"VEC3"
		},
		{
			"bufferView":49,
			"componentType":5126,
			"count":229,
			"type":"VEC3"
		},
		{
			"bufferView":50,
			"componentType":5126,
			"count":229,
			"type":"VEC2"
		},
		{
			"bufferView":51,
			"componentType":5126,
			"count":229,
			"max":[
				-1.0455633401870728,
				-0.6237886548042297,
				2.4773848056793213
			],
			"min":[
				-1.5596952438354492,
				-1.7466247081756592,
				1.3256728649139404
			],
			"type":"VEC3"
		},
		{
			"bufferView":52,
			"componentType":5126,
			"count":229,
			"type":"VEC3"
		},
		{
			"bufferView":53,
			"componentType":5126,
			"count":229,
			"type":"VEC2"
		},
		{
			"bufferView":54,
			"componentType":5126,
			"count":48,
			"max":[
				0.1072952151298523,
				0.10729515552520752,
				0.03683757781982422
			],
			"min":[
				-0.10729509592056274,
				-0.10729515552520752,
				-0.03683751821517944
			],
			"type":"VEC3"
		},
		{
			"bufferView":55,
			"componentType":5126,
			"count":48,
			"type":"VEC3"
		},
		{
			"bufferView":56,
			"componentType":5126,
			"count":48,
			"type":"VEC2"
		},
		{
			"bufferView":57,
			"componentType":5123,
			"count":84,
			"type":"SCALAR"
		},
		{
			"bufferView":58,
			"componentType":5126,
			"count":60,
			"max":[
				0.06750356405973434,
				0.06424355506896973,
				0.18858489394187927
			],
			"min":[
				-0.06750357151031494,
				-0.06424379348754883,
				-0.18858477473258972
			],
			"type":"VEC3"
		},
		{
			"bufferView":59,
			"componentType":5126,
			"count":60,
			"type":"VEC3"
		},
		{
			"bufferView":60,
			"componentType":5126,
			"count":60,
			"type":"VEC2"
		},
		{
			"bufferView":61,
			"componentType":5123,
			"count":108,
			"type":"SCALAR"
		},
		{
			"bufferView":62,
			"componentType":5126,
			"count":60,
			"max":[
				0.042698394507169724,
				0.040636539459228516,
				0.6354725956916809
			],
			"min":[
				-0.04269840568304062,
				-0.040636539459228516,
				-0.6354725956916809
			],
			"type":"VEC3"
		},
		{
			"bufferView":63,
			"componentType":5126,
			"count":60,
			"type":"VEC3"
		},
		{
			"bufferView":64,
			"componentType":5126,
			"count":60,
			"type":"VEC2"
		},
		{
			"bufferView":65,
			"componentType":5126,
			"count":60,
			"max":[
				0.06750356405973434,
				0.06424355506896973,
				0.18858489394187927
			],
			"min":[
				-0.06750357151031494,
				-0.06424379348754883,
				-0.18858477473258972
			],
			"type":"VEC3"
		},
		{
			"bufferView":66,
			"componentType":5126,
			"count":60,
			"type":"VEC3"
		},
		{
			"bufferView":67,
			"componentType":5126,
			"count":60,
			"type":"VEC2"
		}
	],
	"bufferViews":[
		{
			"buffer":0,
			"byteLength":912,
			"byteOffset":0,
			"target":34962
		},
		{
			"buffer":0,
			"byteLength":912,
			"byteOffset":912,
			"target":34962
		},
		{
			"buffer":0,
			"byteLength":608,
			"byteOffset":1824,
			"target":34962
		},
		{
			"buffer":0,
			"byteLength":240,
			"byteOffset":2432,
			"target":34963
		},
		{
			"buffer":0,
			"byteLength":1152,
			"byteOffset":2672,
			"target":34962
		},
		{
			"buffer":0,
			"byteLength":1152,
			"byteOffset":3824,
			"target":34962
		},
		{
			"buffer":0,
			"byteLength":768,
			"byteOffset":4976,
			"target":34962
		},
		{
			"buffer":0,
			"byteLength":312,
			"byteOffset":5744,
			"target":34963
		},
		{
			"buffer":0,
			"byteLength":1200,
			"byteOffset":6056,
			"target":34962
		},
		{
			"buffer":0,
			"byteLength":1200,
			"byteOffset":7256,
			"target":34962
		},
		{
			"buffer":0,
			"byteLength":800,
			"byteOffset":8456,
			"target":34962
		},
		{
			"buffer":0,
			"byteLength":360,
			"byteOffset":9256,
			"target":34963
		},
		{
			"buffer":0,
			"byteLength":576,
			"byteOffset":9616,
			"target":34962
		},
		{
			"buffer":0,
			"byteLength":576,
			"byteOffset":10192,
			"target":34962
		},
		{
			"buffer":0,
			"byteLength":384,
			"byteOffset":10768,
			"target":34962
		},
		{
			"buffer":0,
			"byteLength":168,
			"byteOffset":11152,
			"target":34963
		},
		{
			"buffer":0,
			"byteLength":600,
			"byteOffset":11320,
			"target":34962
		},
		{
			"buffer":0,
			"byteLength":600,
			"byteOffset":11920,
			"target":34962
		},
		{
			"buffer":0,
			"byteLength":400,
			"byteOffset":12520,
			"target":34962
		},
		{
			"buffer":0,
			"byteLength":168,
			"byteOffset":12920,
			"target":34963
		},
		{
			"buffer":0,
			"byteLength":288,
			"byteOffset":13088,
			"target":34962
		},
		{
			"buffer":0,
			"byteLength":288,
			"byteOffset":13376,
			"target":34962
		},
		{
			"buffer":0,
			"byteLength":192,
			"byteOffset":13664,
			"target":34962
		},
		{
			"buffer":0,
			"byteLength":72,
			"byteOffset":13856,
			"target":34963
		},
		{
			"buffer":0,
			"byteLength":4128,
			"byteOffset":13928,
			"target":34962
		},
		{
			"buffer":0,
			"byteLength":4128,
			"byteOffset":18056,
			"target":34962
		},
		{
			"buffer":0,
			"byteLength":2752,
			"byteOffset":22184,
			"target":34962
		},
		{
			"buffer":0,
			"byteLength":1080,
			"byteOffset":24936,
			"target":34963
		},
		{
			"buffer":0,
			"byteLength":2748,
			"byteOffset":26016,
			"target":34962
		},
		{
			"buffer":0,
			"byteLength":2748,
			"byteOffset":28764,
			"target":34962
		},
		{
			"buffer":0,
			"byteLength":1832,
			"byteOffset":31512,
			"target":34962
		},
		{
			"buffer":0,
			"byteLength":816,
			"byteOffset":33344,
			"target":34963
		},
		{
			"buffer":0,
			"byteLength":2748,
			"byteOffset":34160,
			"target":34962
		},
		{
			"buffer":0,
			"byteLength":2748,
			"byteOffset":36908,
			"target":34962
		},
		{
			"buffer":0,
			"byteLength":1832,
			"byteOffset":39656,
			"target":34962
		},
		{
			"buffer":0,
			"byteLength":2748,
			"byteOffset":41488,
			"target":34962
		},
		{
			"buffer":0,
			"byteLength":2748,
			"byteOffset":44236,
			"target":34962
		},
		{
			"buffer":0,
			"byteLength":1832,
			"byteOffset":46984,
			"target":34962
		},
		{
			"buffer":0,
			"byteLength":2748,
			"byteOffset":48816,
			"target":34962
		},
		{
			"buffer":0,
			"byteLength":2748,
			"byteOffset":51564,
			"target":34962
		},
		{
			"buffer":0,
			"byteLength":1832,
			"byteOffset":54312,
			"target":34962
		},
		{
			"buffer":0,
			"byteLength":2748,
			"byteOffset":56144,
			"target":34962
		},
		{
			"buffer":0,
			"byteLength":2748,
			"byteOffset":58892,
			"target":34962
		},
		{
			"buffer":0,
			"byteLength":1832,
			"byteOffset":61640,
			"target":34962
		},
		{
			"buffer":0,
			"byteLength":816,
			"byteOffset":63472,
			"target":34963
		},
		{
			"buffer":0,
			"byteLength":2748,
			"byteOffset":64288,
			"target":34962
		},
		{
			"buffer":0,
			"byteLength":2748,
			"byteOffset":67036,
			"target":34962
		},
		{
			"buffer":0,
			"byteLength":1832,
			"byteOffset":69784,
			"target":34962
		},
		{
			"buffer":0,
			"byteLength":2748,
			"byteOffset":71616,
			"target":34962
		},
		{
			"buffer":0,
			"byteLength":2748,
			"byteOffset":74364,
			"target":34962
		},
		{
			"buffer":0,
			"byteLength":1832,
			"byteOffset":77112,
			"target":34962
		},
		{
			"buffer":0,
			"byteLength":2748,
			"byteOffset":78944,
			"target":34962
		},
		{
			"buffer":0,
			"byteLength":2748,
			"byteOffset":81692,
			"target":34962
		},
		{
			"buffer":0,
			"byteLength":1832,
			"byteOffset":84440,
			"target":34962
		},
		{
			"buffer":0,
			"byteLength":576,
			"byteOffset":86272,
			"target":34962
		},
		{
			"buffer":0,
			"byteLength":576,
			"byteOffset":86848,
			"target":34962
		},
		{
			"buffer":0,
			"byteLength":384,
			"byteOffset":87424,
			"target":34962
		},
		{
			"buffer":0,
			"byteLength":168,
			"byteOffset":87808,
			"target":34963
		},
		{
			"buffer":0,
			"byteLength":720,
			"byteOffset":87976,
			"target":34962
		},
		{
			"buffer":0,
			"byteLength":720,
			"byteOffset":88696,
			"target":34962
		},
		{
			"buffer":0,
			"byteLength":480,
			"byteOffset":89416,
			"target":34962
		},
		{
			"buffer":0,
			"byteLength":216,
			"byteOffset":89896,
			"target":34963
		},
		{
			"buffer":0,
			"byteLength":720,
			"byteOffset":90112,
			"target":34962
		},
		{
			"buffer":0,
			"byteLength":720,
			"byteOffset":90832,
			"target":34962
		},
		{
			"buffer":0,
			"byteLength":480,
			"byteOffset":91552,
			"target":34962
		},
		{
			"buffer":0,
			"byteLength":720,
			"byteOffset":92032,
			"target":34962
		},
		{
			"buffer":0,
			"byteLength":720,
			"byteOffset":92752,
			"target":34962
		},
		{
			"buffer":0,
			"byteLength":480,
			"byteOffset":93472,
			"target":34962
		}
	],
	"buffers":[
		{
			"byteLength":93952,
			"uri":"AntiInfantry.bin"
		}
	]
}
