{
	"asset":{
		"generator":"Khronos glTF Blender I/O v4.3.47",
		"version":"2.0"
	},
	"scene":0,
	"scenes":[
		{
			"name":"Scene",
			"nodes":[
				0,
				2,
				3,
				4,
				5,
				6,
				7,
				8,
				9,
				10
			]
		}
	],
	"nodes":[
		{
			"mesh":0,
			"name":"Body"
		},
		{
			"mesh":1,
			"name":"Cannon",
			"scale":[
				0.6468762159347534,
				0.6468762159347534,
				0.42494264245033264
			],
			"translation":[
				-0.003155259881168604,
				-0.005766034126281738,
				1.0769233703613281
			]
		},
		{
			"children":[
				1
			],
			"mesh":2,
			"name":"Turret",
			"scale":[
				1.537145733833313,
				1.537145733833313,
				1.537145733833313
			],
			"translation":[
				0.003967857453972101,
				1.4042515754699707,
				-0.9502962827682495
			]
		},
		{
			"mesh":3,
			"name":"Cylinder"
		},
		{
			"mesh":4,
			"name":"Cylinder.001"
		},
		{
			"mesh":5,
			"name":"Cylinder.002"
		},
		{
			"mesh":6,
			"name":"Cylinder.003"
		},
		{
			"mesh":7,
			"name":"Cylinder.004"
		},
		{
			"mesh":8,
			"name":"Cylinder.005"
		},
		{
			"mesh":9,
			"name":"Cylinder.006"
		},
		{
			"mesh":10,
			"name":"Cylinder.007"
		}
	],
	"materials":[
		{
			"doubleSided":true,
			"name":"Material",
			"pbrMetallicRoughness":{
				"baseColorFactor":[
					0.07618491351604462,
					0.10461661964654922,
					0.029556872323155403,
					1
				],
				"metallicFactor":0,
				"roughnessFactor":0.5
			}
		},
		{
			"doubleSided":true,
			"name":"Material.001",
			"pbrMetallicRoughness":{
				"baseColorFactor":[
					0.022173738107085228,
					0.02217390015721321,
					0.022173890843987465,
					1
				],
				"metallicFactor":0,
				"roughnessFactor":0.5
			}
		}
	],
	"meshes":[
		{
			"name":"Cube.005",
			"primitives":[
				{
					"attributes":{
						"POSITION":0,
						"NORMAL":1,
						"TEXCOORD_0":2
					},
					"indices":3,
					"material":0
				}
			]
		},
		{
			"name":"Cylinder.009",
			"primitives":[
				{
					"attributes":{
						"POSITION":4,
						"NORMAL":5,
						"TEXCOORD_0":6
					},
					"indices":7,
					"material":1
				},
				{
					"attributes":{
						"POSITION":8,
						"NORMAL":9,
						"TEXCOORD_0":10
					},
					"indices":11,
					"material":0
				}
			]
		},
		{
			"name":"Cube.008",
			"primitives":[
				{
					"attributes":{
						"POSITION":12,
						"NORMAL":13,
						"TEXCOORD_0":14
					},
					"indices":15,
					"material":0
				},
				{
					"attributes":{
						"POSITION":16,
						"NORMAL":17,
						"TEXCOORD_0":18
					},
					"indices":19,
					"material":1
				}
			]
		},
		{
			"name":"Cylinder",
			"primitives":[
				{
					"attributes":{
						"POSITION":20,
						"NORMAL":21,
						"TEXCOORD_0":22
					},
					"indices":23,
					"material":1
				}
			]
		},
		{
			"name":"Cylinder.001",
			"primitives":[
				{
					"attributes":{
						"POSITION":24,
						"NORMAL":25,
						"TEXCOORD_0":26
					},
					"indices":23,
					"material":1
				}
			]
		},
		{
			"name":"Cylinder.002",
			"primitives":[
				{
					"attributes":{
						"POSITION":27,
						"NORMAL":28,
						"TEXCOORD_0":29
					},
					"indices":23,
					"material":1
				}
			]
		},
		{
			"name":"Cylinder.003",
			"primitives":[
				{
					"attributes":{
						"POSITION":30,
						"NORMAL":31,
						"TEXCOORD_0":32
					},
					"indices":23,
					"material":1
				}
			]
		},
		{
			"name":"Cylinder.004",
			"primitives":[
				{
					"attributes":{
						"POSITION":33,
						"NORMAL":34,
						"TEXCOORD_0":35
					},
					"indices":36,
					"material":1
				}
			]
		},
		{
			"name":"Cylinder.005",
			"primitives":[
				{
					"attributes":{
						"POSITION":37,
						"NORMAL":38,
						"TEXCOORD_0":39
					},
					"indices":36,
					"material":1
				}
			]
		},
		{
			"name":"Cylinder.006",
			"primitives":[
				{
					"attributes":{
						"POSITION":40,
						"NORMAL":41,
						"TEXCOORD_0":42
					},
					"indices":36,
					"material":1
				}
			]
		},
		{
			"name":"Cylinder.007",
			"primitives":[
				{
					"attributes":{
						"POSITION":43,
						"NORMAL":44,
						"TEXCOORD_0":45
					},
					"indices":36,
					"material":1
				}
			]
		}
	],
	"accessors":[
		{
			"bufferView":0,
			"componentType":5126,
			"count":172,
			"max":[
				1.4760770797729492,
				0.39269518852233887,
				3.135615110397339
			],
			"min":[
				-1.4760770797729492,
				-1.4240269660949707,
				-2.970541477203369
			],
			"type":"VEC3"
		},
		{
			"bufferView":1,
			"componentType":5126,
			"count":172,
			"type":"VEC3"
		},
		{
			"bufferView":2,
			"componentType":5126,
			"count":172,
			"type":"VEC2"
		},
		{
			"bufferView":3,
			"componentType":5123,
			"count":276,
			"type":"SCALAR"
		},
		{
			"bufferView":4,
			"componentType":5126,
			"count":120,
			"max":[
				0.06750356405973434,
				0.06424355506896973,
				0.18858489394187927
			],
			"min":[
				-0.06750357151031494,
				-0.06424379348754883,
				-1.2323057651519775
			],
			"type":"VEC3"
		},
		{
			"bufferView":5,
			"componentType":5126,
			"count":120,
			"type":"VEC3"
		},
		{
			"bufferView":6,
			"componentType":5126,
			"count":120,
			"type":"VEC2"
		},
		{
			"bufferView":7,
			"componentType":5123,
			"count":216,
			"type":"SCALAR"
		},
		{
			"bufferView":8,
			"componentType":5126,
			"count":60,
			"max":[
				0.2983759939670563,
				0.2510243356227875,
				-0.4997602701187134
			],
			"min":[
				-0.28862062096595764,
				-0.23319730162620544,
				-3.1204562187194824
			],
			"type":"VEC3"
		},
		{
			"bufferView":9,
			"componentType":5126,
			"count":60,
			"type":"VEC3"
		},
		{
			"bufferView":10,
			"componentType":5126,
			"count":60,
			"type":"VEC2"
		},
		{
			"bufferView":11,
			"componentType":5123,
			"count":96,
			"type":"SCALAR"
		},
		{
			"bufferView":12,
			"componentType":5126,
			"count":198,
			"max":[
				0.9438248872756958,
				0.1964641809463501,
				0.8166887760162354
			],
			"min":[
				-0.9089229106903076,
				-0.8823648691177368,
				-0.516261637210846
			],
			"type":"VEC3"
		},
		{
			"bufferView":13,
			"componentType":5126,
			"count":198,
			"type":"VEC3"
		},
		{
			"bufferView":14,
			"componentType":5126,
			"count":198,
			"type":"VEC2"
		},
		{
			"bufferView":15,
			"componentType":5123,
			"count":348,
			"type":"SCALAR"
		},
		{
			"bufferView":16,
			"componentType":5126,
			"count":392,
			"max":[
				1.0520565509796143,
				0.2687796354293823,
				0.56446373462677
			],
			"min":[
				-0.8365048170089722,
				-0.5415514707565308,
				-0.35910457372665405
			],
			"type":"VEC3"
		},
		{
			"bufferView":17,
			"componentType":5126,
			"count":392,
			"type":"VEC3"
		},
		{
			"bufferView":18,
			"componentType":5126,
			"count":392,
			"type":"VEC2"
		},
		{
			"bufferView":19,
			"componentType":5123,
			"count":624,
			"type":"SCALAR"
		},
		{
			"bufferView":20,
			"componentType":5126,
			"count":229,
			"max":[
				1.560903549194336,
				-0.6237886548042297,
				-1.5758769512176514
			],
			"min":[
				1.04677152633667,
				-1.7466247081756592,
				-2.7275888919830322
			],
			"type":"VEC3"
		},
		{
			"bufferView":21,
			"componentType":5126,
			"count":229,
			"type":"VEC3"
		},
		{
			"bufferView":22,
			"componentType":5126,
			"count":229,
			"type":"VEC2"
		},
		{
			"bufferView":23,
			"componentType":5123,
			"count":408,
			"type":"SCALAR"
		},
		{
			"bufferView":24,
			"componentType":5126,
			"count":229,
			"max":[
				1.560903549194336,
				-0.6237886548042297,
				-0.3828684687614441
			],
			"min":[
				1.04677152633667,
				-1.7466247081756592,
				-1.5345802307128906
			],
			"type":"VEC3"
		},
		{
			"bufferView":25,
			"componentType":5126,
			"count":229,
			"type":"VEC3"
		},
		{
			"bufferView":26,
			"componentType":5126,
			"count":229,
			"type":"VEC2"
		},
		{
			"bufferView":27,
			"componentType":5126,
			"count":229,
			"max":[
				1.560903549194336,
				-0.6237886548042297,
				1.2843763828277588
			],
			"min":[
				1.04677152633667,
				-1.7466247081756592,
				0.1326645016670227
			],
			"type":"VEC3"
		},
		{
			"bufferView":28,
			"componentType":5126,
			"count":229,
			"type":"VEC3"
		},
		{
			"bufferView":29,
			"componentType":5126,
			"count":229,
			"type":"VEC2"
		},
		{
			"bufferView":30,
			"componentType":5126,
			"count":229,
			"max":[
				1.560903549194336,
				-0.6237886548042297,
				2.4773848056793213
			],
			"min":[
				1.04677152633667,
				-1.7466247081756592,
				1.3256731033325195
			],
			"type":"VEC3"
		},
		{
			"bufferView":31,
			"componentType":5126,
			"count":229,
			"type":"VEC3"
		},
		{
			"bufferView":32,
			"componentType":5126,
			"count":229,
			"type":"VEC2"
		},
		{
			"bufferView":33,
			"componentType":5126,
			"count":229,
			"max":[
				-1.0455633401870728,
				-0.6237886548042297,
				-1.5758769512176514
			],
			"min":[
				-1.5596952438354492,
				-1.7466247081756592,
				-2.7275888919830322
			],
			"type":"VEC3"
		},
		{
			"bufferView":34,
			"componentType":5126,
			"count":229,
			"type":"VEC3"
		},
		{
			"bufferView":35,
			"componentType":5126,
			"count":229,
			"type":"VEC2"
		},
		{
			"bufferView":36,
			"componentType":5123,
			"count":408,
			"type":"SCALAR"
		},
		{
			"bufferView":37,
			"componentType":5126,
			"count":229,
			"max":[
				-1.0455633401870728,
				-0.6237886548042297,
				-0.3828684687614441
			],
			"min":[
				-1.5596952438354492,
				-1.7466247081756592,
				-1.5345802307128906
			],
			"type":"VEC3"
		},
		{
			"bufferView":38,
			"componentType":5126,
			"count":229,
			"type":"VEC3"
		},
		{
			"bufferView":39,
			"componentType":5126,
			"count":229,
			"type":"VEC2"
		},
		{
			"bufferView":40,
			"componentType":5126,
			"count":229,
			"max":[
				-1.0455633401870728,
				-0.6237886548042297,
				1.2843763828277588
			],
			"min":[
				-1.5596952438354492,
				-1.7466247081756592,
				0.1326645016670227
			],
			"type":"VEC3"
		},
		{
			"bufferView":41,
			"componentType":5126,
			"count":229,
			"type":"VEC3"
		},
		{
			"bufferView":42,
			"componentType":5126,
			"count":229,
			"type":"VEC2"
		},
		{
			"bufferView":43,
			"componentType":5126,
			"count":229,
			"max":[
				-1.0455633401870728,
				-0.6237886548042297,
				2.4773848056793213
			],
			"min":[
				-1.5596952438354492,
				-1.7466247081756592,
				1.3256728649139404
			],
			"type":"VEC3"
		},
		{
			"bufferView":44,
			"componentType":5126,
			"count":229,
			"type":"VEC3"
		},
		{
			"bufferView":45,
			"componentType":5126,
			"count":229,
			"type":"VEC2"
		}
	],
	"bufferViews":[
		{
			"buffer":0,
			"byteLength":2064,
			"byteOffset":0,
			"target":34962
		},
		{
			"buffer":0,
			"byteLength":2064,
			"byteOffset":2064,
			"target":34962
		},
		{
			"buffer":0,
			"byteLength":1376,
			"byteOffset":4128,
			"target":34962
		},
		{
			"buffer":0,
			"byteLength":552,
			"byteOffset":5504,
			"target":34963
		},
		{
			"buffer":0,
			"byteLength":1440,
			"byteOffset":6056,
			"target":34962
		},
		{
			"buffer":0,
			"byteLength":1440,
			"byteOffset":7496,
			"target":34962
		},
		{
			"buffer":0,
			"byteLength":960,
			"byteOffset":8936,
			"target":34962
		},
		{
			"buffer":0,
			"byteLength":432,
			"byteOffset":9896,
			"target":34963
		},
		{
			"buffer":0,
			"byteLength":720,
			"byteOffset":10328,
			"target":34962
		},
		{
			"buffer":0,
			"byteLength":720,
			"byteOffset":11048,
			"target":34962
		},
		{
			"buffer":0,
			"byteLength":480,
			"byteOffset":11768,
			"target":34962
		},
		{
			"buffer":0,
			"byteLength":192,
			"byteOffset":12248,
			"target":34963
		},
		{
			"buffer":0,
			"byteLength":2376,
			"byteOffset":12440,
			"target":34962
		},
		{
			"buffer":0,
			"byteLength":2376,
			"byteOffset":14816,
			"target":34962
		},
		{
			"buffer":0,
			"byteLength":1584,
			"byteOffset":17192,
			"target":34962
		},
		{
			"buffer":0,
			"byteLength":696,
			"byteOffset":18776,
			"target":34963
		},
		{
			"buffer":0,
			"byteLength":4704,
			"byteOffset":19472,
			"target":34962
		},
		{
			"buffer":0,
			"byteLength":4704,
			"byteOffset":24176,
			"target":34962
		},
		{
			"buffer":0,
			"byteLength":3136,
			"byteOffset":28880,
			"target":34962
		},
		{
			"buffer":0,
			"byteLength":1248,
			"byteOffset":32016,
			"target":34963
		},
		{
			"buffer":0,
			"byteLength":2748,
			"byteOffset":33264,
			"target":34962
		},
		{
			"buffer":0,
			"byteLength":2748,
			"byteOffset":36012,
			"target":34962
		},
		{
			"buffer":0,
			"byteLength":1832,
			"byteOffset":38760,
			"target":34962
		},
		{
			"buffer":0,
			"byteLength":816,
			"byteOffset":40592,
			"target":34963
		},
		{
			"buffer":0,
			"byteLength":2748,
			"byteOffset":41408,
			"target":34962
		},
		{
			"buffer":0,
			"byteLength":2748,
			"byteOffset":44156,
			"target":34962
		},
		{
			"buffer":0,
			"byteLength":1832,
			"byteOffset":46904,
			"target":34962
		},
		{
			"buffer":0,
			"byteLength":2748,
			"byteOffset":48736,
			"target":34962
		},
		{
			"buffer":0,
			"byteLength":2748,
			"byteOffset":51484,
			"target":34962
		},
		{
			"buffer":0,
			"byteLength":1832,
			"byteOffset":54232,
			"target":34962
		},
		{
			"buffer":0,
			"byteLength":2748,
			"byteOffset":56064,
			"target":34962
		},
		{
			"buffer":0,
			"byteLength":2748,
			"byteOffset":58812,
			"target":34962
		},
		{
			"buffer":0,
			"byteLength":1832,
			"byteOffset":61560,
			"target":34962
		},
		{
			"buffer":0,
			"byteLength":2748,
			"byteOffset":63392,
			"target":34962
		},
		{
			"buffer":0,
			"byteLength":2748,
			"byteOffset":66140,
			"target":34962
		},
		{
			"buffer":0,
			"byteLength":1832,
			"byteOffset":68888,
			"target":34962
		},
		{
			"buffer":0,
			"byteLength":816,
			"byteOffset":70720,
			"target":34963
		},
		{
			"buffer":0,
			"byteLength":2748,
			"byteOffset":71536,
			"target":34962
		},
		{
			"buffer":0,
			"byteLength":2748,
			"byteOffset":74284,
			"target":34962
		},
		{
			"buffer":0,
			"byteLength":1832,
			"byteOffset":77032,
			"target":34962
		},
		{
			"buffer":0,
			"byteLength":2748,
			"byteOffset":78864,
			"target":34962
		},
		{
			"buffer":0,
			"byteLength":2748,
			"byteOffset":81612,
			"target":34962
		},
		{
			"buffer":0,
			"byteLength":1832,
			"byteOffset":84360,
			"target":34962
		},
		{
			"buffer":0,
			"byteLength":2748,
			"byteOffset":86192,
			"target":34962
		},
		{
			"buffer":0,
			"byteLength":2748,
			"byteOffset":88940,
			"target":34962
		},
		{
			"buffer":0,
			"byteLength":1832,
			"byteOffset":91688,
			"target":34962
		}
	],
	"buffers":[
		{
			"byteLength":93520,
			"uri":"AntiInfantry.bin"
		}
	]
}
