# Blender 4.3.2
# www.blender.org
mtllib MuzzleCone.mtl
o Cylinder
v 0.000000 -1.039098 0.350630
v 0.667919 -0.795995 0.350630
v 1.023311 -0.180437 0.350630
v 0.899885 0.519549 0.350630
v 0.355392 0.976433 0.350630
v -0.355392 0.976433 0.350630
v -0.899885 0.519549 0.350630
v -1.023311 -0.180437 0.350630
v -0.667919 -0.795995 0.350630
v 0.000000 -0.519549 0.152873
v 0.333960 -0.397998 0.152873
v 0.511656 -0.090219 0.152873
v 0.449943 0.259774 0.152873
v 0.177696 0.488216 0.152873
v -0.177696 0.488216 0.152873
v -0.449943 0.259774 0.152873
v -0.511656 -0.090219 0.152873
v -0.333960 -0.397998 0.152873
v 0.000000 -0.136861 0.000000
v 0.087973 -0.104842 0.000000
v 0.134782 -0.023766 0.000000
v 0.118525 0.068431 0.000000
v 0.046809 0.128607 0.000000
v -0.046809 0.128607 0.000000
v -0.118525 0.068431 0.000000
v -0.134782 -0.023766 0.000000
v -0.087973 -0.104842 0.000000
vn -0.0000 -0.3557 -0.9346
vn 0.2287 -0.2725 -0.9346
vn 0.3503 -0.0618 -0.9346
vn 0.3081 0.1779 -0.9346
vn 0.1217 0.3343 -0.9346
vn -0.1217 0.3343 -0.9346
vn -0.3081 0.1779 -0.9346
vn -0.3503 -0.0618 -0.9346
vn -0.2287 -0.2725 -0.9346
vn -0.0000 -0.3618 -0.9323
vn 0.2326 -0.2771 -0.9323
vn 0.3563 -0.0628 -0.9323
vn 0.3133 0.1809 -0.9323
vn 0.1237 0.3400 -0.9323
vn -0.1237 0.3400 -0.9323
vn -0.3133 0.1809 -0.9323
vn -0.3563 -0.0628 -0.9323
vn -0.2326 -0.2771 -0.9323
vn -0.0000 -0.3710 -0.9286
vn 0.2385 -0.2842 -0.9286
vn 0.3653 -0.0644 -0.9286
vn 0.3213 0.1855 -0.9286
vn 0.1269 0.3486 -0.9286
vn -0.1269 0.3486 -0.9286
vn -0.3213 0.1855 -0.9286
vn -0.3653 -0.0644 -0.9286
vn -0.2385 -0.2842 -0.9286
vt 0.173648 0.879385
vt 0.336824 0.681920
vt 0.500000 0.742227
vt 0.500000 1.000000
vt 0.000000 0.573978
vt 0.250000 0.529216
vt 0.060308 0.226682
vt 0.280154 0.355568
vt 0.326352 0.000000
vt 0.413176 0.242227
vt 0.673648 0.000000
vt 0.586824 0.242227
vt 0.939692 0.226682
vt 0.719846 0.355568
vt 1.000000 0.573978
vt 0.750000 0.529216
vt 0.826352 0.879385
vt 0.663176 0.681920
vt 0.457016 0.536471
vt 0.500000 0.552358
vt 0.434144 0.496246
vt 0.442087 0.450503
vt 0.477128 0.420646
vt 0.522871 0.420646
vt 0.557912 0.450503
vt 0.565856 0.496246
vt 0.542984 0.536471
s 1
f 9/1/9 18/2/18 10/3/10 1/4/1
f 8/5/8 17/6/17 18/2/18 9/1/9
f 7/7/7 16/8/16 17/6/17 8/5/8
f 6/9/6 15/10/15 16/8/16 7/7/7
f 5/11/5 14/12/14 15/10/15 6/9/6
f 4/13/4 13/14/13 14/12/14 5/11/5
f 3/15/3 12/16/12 13/14/13 4/13/4
f 2/17/2 11/18/11 12/16/12 3/15/3
f 1/4/1 10/3/10 11/18/11 2/17/2
f 18/2/18 27/19/27 19/20/19 10/3/10
f 17/6/17 26/21/26 27/19/27 18/2/18
f 16/8/16 25/22/25 26/21/26 17/6/17
f 15/10/15 24/23/24 25/22/25 16/8/16
f 14/12/14 23/24/23 24/23/24 15/10/15
f 13/14/13 22/25/22 23/24/23 14/12/14
f 12/16/12 21/26/21 22/25/22 13/14/13
f 11/18/11 20/27/20 21/26/21 12/16/12
f 10/3/10 19/20/19 20/27/20 11/18/11
