# Blender 4.3.2
# www.blender.org
mtllib ThunderMesh.mtl
o Plane
v -0.086496 0.129074 -0.000000
v 0.186989 0.065599 -0.000000
v -0.753430 16.959747 0.220443
v 0.790683 16.946556 -0.240077
v -0.535107 16.030104 0.179860
v -0.280788 15.308851 0.132716
v 0.162970 14.445086 -0.115041
v 0.521056 12.946598 -0.587872
v -0.222902 11.774679 0.071036
v -0.531747 11.025408 0.341810
v -0.515928 10.650438 0.285411
v -0.473433 10.449446 0.223219
v -1.005728 9.758755 0.493586
v -2.189717 8.665216 0.697822
v -1.952366 8.080477 0.618334
v -1.561173 7.443179 0.413316
v -1.153786 6.966196 0.274830
v -0.994877 6.372027 0.199555
v 0.332811 4.947917 0.083038
v -0.438448 3.497489 0.027578
v 0.154011 2.336581 0.005756
v 0.401966 1.212377 -0.000000
v 0.080022 0.472478 -0.000000
v 0.470879 0.498432 -0.000000
v 1.125424 1.269465 -0.000000
v 0.546829 2.365201 0.005774
v 0.323020 3.486485 0.022520
v 0.993578 4.938945 0.060440
v 0.059395 6.287497 0.105806
v -0.520428 6.981639 0.185666
v -0.872850 7.442435 0.265068
v -1.043351 7.917706 0.342570
v -1.343812 8.759171 0.347026
v -0.284971 9.789028 0.089356
v -0.180434 10.461276 0.017356
v -0.151385 10.669876 -0.031641
v -0.052062 11.046903 -0.156022
v 0.447874 11.782217 -0.628201
v 1.157865 13.150470 -1.194498
v 0.604956 14.452600 -0.432438
v 0.503980 15.319609 -0.243052
v 0.615613 16.021641 -0.220654
vn -0.0000 -0.0000 1.0000
vn 0.3043 -0.0038 0.9526
vn 0.3122 -0.0043 0.9500
vn 0.3798 -0.0115 0.9250
vn 0.5101 -0.0698 0.8573
vn 0.6887 -0.0883 0.7196
vn 0.7203 -0.0476 0.6920
vn 0.7003 -0.0193 0.7136
vn 0.6845 -0.0111 0.7289
vn 0.5687 -0.0159 0.8224
vn 0.4453 -0.2472 0.8606
vn 0.3703 -0.0251 0.9286
vn 0.3324 0.0602 0.9412
vn 0.2387 -0.1192 0.9638
vn 0.1662 -0.0806 0.9828
vn 0.1034 -0.0567 0.9930
vn 0.0444 -0.0214 0.9988
vn 0.0116 -0.0282 0.9995
vn 0.0040 -0.0138 0.9999
vn 0.0002 -0.0024 1.0000
vn 0.0002 -0.0032 1.0000
vn 0.0010 -0.0066 1.0000
vn 0.0119 -0.0287 0.9995
vn 0.0383 -0.0262 0.9989
vn 0.0690 -0.0054 0.9976
vn 0.1087 -0.0605 0.9922
vn 0.1832 -0.0878 0.9791
vn 0.2578 -0.0933 0.9617
vn 0.3767 -0.0460 0.9252
vn 0.5135 -0.0369 0.8573
vn 0.6051 -0.0085 0.7961
vn 0.6842 -0.0110 0.7292
vn 0.7185 -0.0435 0.6942
vn 0.7110 -0.0679 0.6999
vn 0.6823 -0.0939 0.7250
vn 0.6256 -0.1034 0.7733
vn 0.4305 -0.0352 0.9019
vn 0.3206 -0.0048 0.9472
vt 0.000000 0.950000
vt 1.000000 0.950000
vt 1.000000 1.000000
vt 0.000000 1.000000
vt 0.000000 0.000000
vt 1.000000 0.000000
vt 1.000000 0.050000
vt 0.000000 0.050000
vt 1.000000 0.100000
vt 0.000000 0.100000
vt 1.000000 0.150000
vt 0.000000 0.150000
vt 1.000000 0.200000
vt 0.000000 0.200000
vt 1.000000 0.250000
vt 0.000000 0.250000
vt 1.000000 0.300000
vt 0.000000 0.300000
vt 1.000000 0.350000
vt 0.000000 0.350000
vt 1.000000 0.400000
vt 0.000000 0.400000
vt 1.000000 0.450000
vt 0.000000 0.450000
vt 1.000000 0.500000
vt 0.000000 0.500000
vt 1.000000 0.550000
vt 0.000000 0.550000
vt 1.000000 0.600000
vt 0.000000 0.600000
vt 1.000000 0.650000
vt 0.000000 0.650000
vt 1.000000 0.700000
vt 0.000000 0.700000
vt 1.000000 0.750000
vt 0.000000 0.750000
vt 1.000000 0.800000
vt 0.000000 0.800000
vt 1.000000 0.850000
vt 0.000000 0.850000
vt 1.000000 0.900000
vt 0.000000 0.900000
s 1
usemtl Material.001
f 5/1/3 42/2/38 4/3/2 3/4/2
f 1/5/1 2/6/1 24/7/1 23/8/1
f 23/8/1 24/7/1 25/9/21 22/10/20
f 22/10/20 25/9/21 26/11/22 21/12/19
f 21/12/19 26/11/22 27/13/23 20/14/18
f 20/14/18 27/13/23 28/15/24 19/16/17
f 19/16/17 28/15/24 29/17/25 18/18/16
f 18/18/16 29/17/25 30/19/26 17/20/15
f 17/20/15 30/19/26 31/21/27 16/22/14
f 16/22/14 31/21/27 32/23/28 15/24/13
f 15/24/13 32/23/28 33/25/29 14/26/12
f 14/26/12 33/25/29 34/27/30 13/28/11
f 13/28/11 34/27/30 35/29/31 12/30/10
f 12/30/10 35/29/31 36/31/32 11/32/9
f 11/32/9 36/31/32 37/33/33 10/34/8
f 10/34/8 37/33/33 38/35/34 9/36/7
f 9/36/7 38/35/34 39/37/35 8/38/6
f 8/38/6 39/37/35 40/39/36 7/40/5
f 7/40/5 40/39/36 41/41/37 6/42/4
f 6/42/4 41/41/37 42/2/38 5/1/3
